<svg xmlns="http://www.w3.org/2000/svg" xmlns:xlink="http://www.w3.org/1999/xlink" viewBox="0 0 265.58 324.2"><defs><style>.cls-1,.cls-7{fill:none;}.cls-2{isolation:isolate;}.cls-3{fill:#cb9a48;}.cls-4{clip-path:url(#clip-path);}.cls-5{fill:#fff;}.cls-5,.cls-7{stroke:#cb9a48;stroke-miterlimit:10;stroke-width:3px;}.cls-6{opacity:0.75;mix-blend-mode:darken;fill:url(#radial-gradient);}</style><clipPath id="clip-path" transform="translate(-768.2 -1323.37)"><circle class="cls-1" cx="901" cy="1477.36" r="131.29"/></clipPath><radialGradient id="radial-gradient" cx="131.86" cy="217.25" r="36.31" gradientUnits="userSpaceOnUse"><stop offset="0.23" stop-color="#cb9a48"/><stop offset="1" stop-color="#fff"/></radialGradient></defs><g class="cls-2"><g id="Layer_1" data-name="Layer 1"><circle class="cls-3" cx="132.79" cy="153.99" r="131.29"/><g class="cls-4"><path class="cls-5" d="M826.47,1324.87H973.59s-14.42,9.26-14.42,33.78,44.49,49,44.49,107S973.24,1602.05,955,1629.45c-27.25,40.87-34-6.53-34-6.53s-15.92-45.09-19.32-76.81c-3.18-29.68,11-63.87.53-63.87s2.34,33.21-2,63.87c-4.42,31.31-21.43,76.26-21.43,76.26s-10.74,45.79-37.56,6c-19.39-28.75-41.79-104.07-41.79-162.37s43.4-87.18,43.4-107.88S826.47,1324.87,826.47,1324.87Z" transform="translate(-768.2 -1323.37)"/></g><path class="cls-5" d="M877.8,1475.25s14.71,7,24.24,7,24.25-7,24.25-7" transform="translate(-768.2 -1323.37)"/><circle class="cls-5" cx="136.29" cy="65.52" r="2.45"/><circle class="cls-6" cx="131.86" cy="217.25" r="36.31"/><circle class="cls-7" cx="132.79" cy="153.99" r="131.29"/></g></g></svg>