<svg id="Layer_1" data-name="Layer 1" xmlns="http://www.w3.org/2000/svg" viewBox="0 0 268.56 268.56"><defs><style>.cls-1{fill:#093e57;}.cls-2{fill:#fff;}</style></defs><path class="cls-1" d="M.21,139.55q0-5.15,0-10.31A134.85,134.85,0,0,1,7.13,91.6,134.4,134.4,0,0,1,94.5,6.41,129.35,129.35,0,0,1,123.22.92,134,134,0,0,1,264.1,101.77a129.19,129.19,0,0,1,3.79,25.28,132.86,132.86,0,0,1-13.95,67.43A131.42,131.42,0,0,1,226,231.94a132.64,132.64,0,0,1-64.9,33.75,144.34,144.34,0,0,1-21.82,2.67l-10.55,0a135.49,135.49,0,0,1-36.25-6.5A134.42,134.42,0,0,1,13.11,192,132,132,0,0,1,1.68,154.78C.91,149.73.48,144.65.21,139.55Zm164.32-21.36c1.58,2.49,3.08,4.75,4.46,7.07.59,1,1,1.21,2.06.52,4.86-3.14,9.77-6.19,14.72-9.2.93-.57.9-.94.36-1.78q-8.85-13.81-17.6-27.67A11.58,11.58,0,0,0,164,83a23.49,23.49,0,0,0-3.84-1.31L127.71,71.22c-.7-.23-1.18-.37-1.59.53-2.43,5.34-4.91,10.65-7.4,16-.35.75-.33,1.05.58,1.3,5,1.39,10,2.85,14.94,4.28,1.34.39,1.34.41.64,1.66q-9.57,17-19.15,34c-.48.86-.51,1.27.44,1.85q15,9,29.87,18.16c.8.48,1.14.44,1.61-.41,3.55-6.46,7.16-12.9,10.75-19.35C160.39,125.61,162.39,122,164.53,118.19ZM132.81,228.42a11.26,11.26,0,0,0,21.1,5.48q5.07-9.17,10.15-18.33,6.1-11,12.22-22a11.14,11.14,0,0,0-2.1-14c-.67-.63-1.39-1.21-2.08-1.81l-9.16-8.09c-.34-.3-.6-.59-1.08-.11q-6.24,6.32-12.52,12.57c-.47.47-.47.7.13,1,1.32.75,2.57,1.63,3.91,2.33,1,.5,1,1,.49,1.89q-9.87,17.73-19.65,35.51A10.44,10.44,0,0,0,132.81,228.42Zm-64-38.52q11.79,0,23.6,0a13.44,13.44,0,0,0,3.89-.54c3-.88,4.92-3.15,6.83-5.42.46-.54,0-.78-.3-1.07C98.27,177.93,93.66,173,89.09,168a2.47,2.47,0,0,0-2.06-.9q-20.25,0-40.5,0a24.87,24.87,0,0,0-3.34.22,11.34,11.34,0,0,0,2.15,22.52C53.17,189.92,61,189.9,68.83,189.9ZM110.4,66.17a9.4,9.4,0,0,0-3.73.58C95.81,70.59,84.93,74.4,74.09,78.33a11.31,11.31,0,0,0,7.72,21.26Q96.75,94.28,111.7,89c.55-.2,1.1-.33,1.4-1q4.13-9,8.31-17.91c.32-.68.12-.9-.52-1.09-1.45-.43-2.89-.93-4.33-1.38C114.51,67,112.56,66,110.4,66.17Zm-.69,84.27c0,.46.06,1,.09,1.49a11.71,11.71,0,0,0,4.78,9.11c9.38,7,19.6,12.56,29.9,18a.79.79,0,0,0,1.13-.13q6.15-6.22,12.35-12.38c.52-.52.56-.81,0-1.3-1.43-1.21-2.8-2.5-4.22-3.71-3.73-3.17-7.12-6.76-11.51-9.11-2.29-1.23-4.45-2.68-6.66-4q-10.48-6.39-21-12.75c-.41-.25-.81-.75-1.19.11A38.53,38.53,0,0,0,109.71,150.44Zm90.87-8.81h15a11.34,11.34,0,1,0,.09-22.68q-11.74,0-23.48,0a2,2,0,0,0-1.15.19q-8.91,5.59-17.86,11.16c-.55.34-.56.63-.23,1.14,1,1.5,1.92,3,2.87,4.55a11.32,11.32,0,0,0,10.06,5.64C190.76,141.65,195.67,141.63,200.58,141.63ZM177,82.77a17.66,17.66,0,1,0-17.61-17.66A17.55,17.55,0,0,0,177,82.77Zm-72.21,65.82c-.72,1.08-1.21,1.89-1.78,2.65q-4.77,6.28-9.59,12.55c-.5.64-.56,1.06,0,1.7Q99.81,172.2,106,179c.63.69,1,.77,1.63,0,2.83-3.19,5.71-6.34,8.6-9.48.49-.53.58-.82-.12-1.24-1-.58-1.82-1.28-2.75-1.9-3.88-2.57-6.84-5.84-8-10.49A24.08,24.08,0,0,1,104.82,148.59Z"/><path class="cls-2" d="M0,129.24Q0,65.18,0,1.1C0,.2.21,0,1.11,0Q134.28,0,267.46,0c.9,0,1.1.2,1.1,1.1q0,133.19,0,266.35c0,.9-.2,1.11-1.1,1.11q-64.08,0-128.14,0v-.17a144.34,144.34,0,0,0,21.82-2.67A132.64,132.64,0,0,0,226,231.94a131.42,131.42,0,0,0,27.9-37.46,132.86,132.86,0,0,0,13.95-67.43,129.19,129.19,0,0,0-3.79-25.28,133.09,133.09,0,0,0-37.33-64.12A133.5,133.5,0,0,0,123.22.92,129.35,129.35,0,0,0,94.5,6.41,134.4,134.4,0,0,0,7.13,91.6,134.85,134.85,0,0,0,.22,129.24Z"/><path class="cls-2" d="M128.77,268.53q-63.81,0-127.61,0c-1,0-1.16-.19-1.16-1.17q0-63.91,0-127.84H.21c.27,5.1.7,10.18,1.47,15.23A132,132,0,0,0,13.11,192a134.42,134.42,0,0,0,79.41,69.82,135.49,135.49,0,0,0,36.25,6.5Z"/><path class="cls-2" d="M128.77,268.53v-.19l10.55,0v.17Z"/><path class="cls-2" d="M.21,139.55H0V129.24H.22Q.21,134.4.21,139.55Z"/><path class="cls-2" d="M164.53,118.19c-2.14,3.84-4.14,7.42-6.13,11-3.59,6.45-7.2,12.89-10.75,19.35-.47.85-.81.89-1.61.41q-14.91-9.14-29.87-18.16c-1-.58-.92-1-.44-1.85q9.6-17,19.15-34c.7-1.25.7-1.27-.64-1.66-5-1.43-10-2.89-14.94-4.28-.91-.25-.93-.55-.58-1.3,2.49-5.31,5-10.62,7.4-16,.41-.9.89-.76,1.59-.53l32.43,10.45A23.49,23.49,0,0,1,164,83a11.58,11.58,0,0,1,4.55,4.15q8.78,13.83,17.6,27.67c.54.84.57,1.21-.36,1.78-5,3-9.86,6.06-14.72,9.2-1.08.69-1.47.47-2.06-.52C167.61,122.94,166.11,120.68,164.53,118.19Z"/><path class="cls-2" d="M132.81,228.42a10.44,10.44,0,0,1,1.41-5.49q9.81-17.76,19.65-35.51c.51-.92.49-1.39-.49-1.89-1.34-.7-2.59-1.58-3.91-2.33-.6-.34-.6-.57-.13-1q6.28-6.27,12.52-12.57c.48-.48.74-.19,1.08.11l9.16,8.09c.69.6,1.41,1.18,2.08,1.81a11.14,11.14,0,0,1,2.1,14q-6.09,11-12.22,22-5.09,9.17-10.15,18.33a11.26,11.26,0,0,1-21.1-5.48Z"/><path class="cls-2" d="M68.83,189.9c-7.83,0-15.66,0-23.49,0a11.34,11.34,0,0,1-2.15-22.52,24.87,24.87,0,0,1,3.34-.22q20.25,0,40.5,0a2.47,2.47,0,0,1,2.06.9c4.57,5,9.18,9.89,13.76,14.83.28.29.76.53.3,1.07-1.91,2.27-3.81,4.54-6.83,5.42a13.44,13.44,0,0,1-3.89.54Q80.63,189.89,68.83,189.9Z"/><path class="cls-2" d="M110.4,66.17c2.16-.19,4.11.84,6.16,1.48,1.44.45,2.88.95,4.33,1.38.64.19.84.41.52,1.09Q117.23,79.06,113.1,88c-.3.65-.85.78-1.4,1q-15,5.28-29.89,10.58a11.31,11.31,0,0,1-7.72-21.26c10.84-3.93,21.72-7.74,32.58-11.58A9.4,9.4,0,0,1,110.4,66.17Z"/><path class="cls-2" d="M109.71,150.44a38.53,38.53,0,0,1,3.68-14.68c.38-.86.78-.36,1.19-.11q10.49,6.36,21,12.75c2.21,1.34,4.37,2.79,6.66,4,4.39,2.35,7.78,5.94,11.51,9.11,1.42,1.21,2.79,2.5,4.22,3.71.59.49.55.78,0,1.3q-6.21,6.15-12.35,12.38a.79.79,0,0,1-1.13.13c-10.3-5.45-20.52-11-29.9-18a11.71,11.71,0,0,1-4.78-9.11C109.77,151.42,109.74,150.9,109.71,150.44Z"/><path class="cls-2" d="M200.58,141.63c-4.91,0-9.82,0-14.73,0A11.32,11.32,0,0,1,175.79,136c-.95-1.52-1.9-3-2.87-4.55-.33-.51-.32-.8.23-1.14q9-5.55,17.86-11.16a2,2,0,0,1,1.15-.19q11.75,0,23.48,0a11.34,11.34,0,1,1-.09,22.68Z"/><path class="cls-2" d="M177,82.77a17.66,17.66,0,1,1,17.7-17.69A17.53,17.53,0,0,1,177,82.77Z"/><path class="cls-2" d="M104.82,148.59a24.08,24.08,0,0,0,.59,7.31c1.14,4.65,4.1,7.92,8,10.49.93.62,1.8,1.32,2.75,1.9.7.42.61.71.12,1.24-2.89,3.14-5.77,6.29-8.6,9.48-.66.75-1,.67-1.63,0q-6.23-6.8-12.54-13.5c-.6-.64-.54-1.06,0-1.7q4.83-6.25,9.59-12.55C103.61,150.48,104.1,149.67,104.82,148.59Z"/></svg>